<?xml version="1.0" standalone="no"?>
<!DOCTYPE svg PUBLIC "-//W3C//DTD SVG 1.0//EN" "http://www.w3.org/TR/2001/REC-SVG-20010904/DTD/svg10.dtd">
<svg xmlns="http://www.w3.org/2000/svg" xmlns:xlink="http://www.w3.org/1999/xlink" id="body_1" width="363" height="242">

<g transform="matrix(0.54017866 0 0 0.54017866 0 0)">
	<g transform="matrix(1.917086 0 0 1.917086 76.68344 138.55551)">
        <path d="M115.39 46.71C 115.39 59.48 105.4 68.89 93.14 68.89C 80.88 68.89 70.89 59.48 70.89 46.71C 70.89 33.85 80.88 24.529999 93.14 24.529999C 105.4 24.529999 115.39 33.85 115.39 46.71zM105.65 46.71C 105.65 38.73 99.86 33.27 93.14 33.27C 86.42 33.27 80.63 38.73 80.63 46.71C 80.63 54.61 86.42 60.149998 93.14 60.149998C 99.86 60.149998 105.65 54.6 105.65 46.71z" stroke="none" fill="#EA4335" fill-rule="nonzero" />
        <path d="M163.39 46.71C 163.39 59.48 153.4 68.89 141.14 68.89C 128.88 68.89 118.89 59.48 118.89 46.71C 118.89 33.86 128.88 24.529999 141.14 24.529999C 153.4 24.529999 163.39 33.85 163.39 46.71zM153.65 46.71C 153.65 38.73 147.86 33.27 141.14 33.27C 134.42 33.27 128.63 38.73 128.63 46.71C 128.63 54.61 134.42 60.149998 141.14 60.149998C 147.86 60.149998 153.65 54.6 153.65 46.71z" stroke="none" fill="#FBBC05" fill-rule="nonzero" />
        <path d="M209.39 25.87L209.39 65.69C 209.39 82.07 199.73 88.76 188.31 88.76C 177.56 88.76 171.09 81.57 168.65 75.69L168.65 75.69L177.12999 72.16C 178.63998 75.770004 182.34 80.03001 188.29999 80.03001C 195.60999 80.03001 200.13998 75.520004 200.13998 67.03001L200.13998 67.03001L200.13998 63.840008L199.79999 63.840008C 197.62 66.53001 193.41998 68.880005 188.12 68.880005C 177.03 68.880005 166.87 59.220005 166.87 46.790005C 166.87 34.270004 177.03 24.530005 188.12 24.530005C 193.40999 24.530005 197.61 26.880005 199.79999 29.490005L199.79999 29.490005L200.13998 29.490005L200.13998 25.880005L209.38998 25.880005L209.39 25.87zM200.83 46.79C 200.83 38.98 195.62 33.27 188.99 33.27C 182.27 33.27 176.64 38.98 176.64 46.79C 176.64 54.52 182.27 60.15 188.99 60.15C 195.62001 60.15 200.83 54.52 200.83 46.79z" stroke="none" fill="#4285F4" fill-rule="nonzero" />
        <path d="M224.64 2.53L224.64 67.53L215.14 67.53L215.14 2.5299988L224.64 2.53z" stroke="none" fill="#34A853" fill-rule="nonzero" />
        <path d="M261.66 54.01L269.22 59.05C 266.78 62.66 260.9 68.88 250.74 68.88C 238.14 68.88 228.73001 59.14 228.73001 46.699997C 228.73001 33.51 238.22002 24.519997 249.65001 24.519997C 261.16 24.519997 266.79 33.679996 268.63 38.629997L268.63 38.629997L269.64 41.149998L239.99002 53.429996C 242.26003 57.879997 245.79002 60.149998 250.74002 60.149998C 255.70003 60.149998 259.14 57.71 261.66003 54.01L261.66003 54.01L261.66 54.01zM238.39 46.03L258.21 37.8C 257.12 35.03 253.84 33.1 249.98 33.1C 245.03 33.1 238.14 37.469997 238.39 46.03z" stroke="none" fill="#EA4335" fill-rule="nonzero" />
        <path d="M34.93 40.94L34.93 31.529999L66.64 31.529999C 66.95 33.17 67.11 35.11 67.11 37.21C 67.11 44.27 65.18 53 58.96 59.22C 52.91 65.520004 45.18 68.880005 34.94 68.880005C 15.96 68.88 0 53.42 0 34.44C 0 15.46 15.96 0 34.94 0C 45.44 0 52.92 4.12 58.54 9.49L58.54 9.49L51.9 16.13C 47.870003 12.349999 42.410004 9.41 34.93 9.41C 21.07 9.41 10.23 20.58 10.23 34.440002C 10.23 48.300003 21.07 59.47 34.93 59.47C 43.92 59.47 49.04 55.86 52.32 52.58C 54.98 49.920002 56.73 46.120003 57.42 40.93L57.42 40.93L34.93 40.94z" stroke="none" fill="#4285F4" fill-rule="nonzero" />
	</g>
</g>
</svg>